<?xml version="1.0" encoding="utf-8"?>
<!-- Generator: Adobe Illustrator 24.2.0, SVG Export Plug-In . SVG Version: 6.00 Build 0)  -->
<svg version="1.1" id="Capa_1" xmlns="http://www.w3.org/2000/svg" xmlns:xlink="http://www.w3.org/1999/xlink" x="0px" y="0px"
	 viewBox="0 0 1244 82" style="enable-background:new 0 0 1244 82;" xml:space="preserve">
<style type="text/css">
	.st0{fill:none;}
	.st1{opacity:0.65;fill:#D8D8D8;}
	.st2{opacity:0.65;}
	.st3{fill:#D8D8D8;}
	.st4{fill-rule:evenodd;clip-rule:evenodd;fill:#D8D8D8;}
</style>
<rect x="187.8" y="528.3" class="st0" width="84.5" height="24.1"/>
<path class="st1" d="M348.9,55.4c-3.5,0-6.3-2.8-6.3-6.3c0-3.5,2.8-6.3,6.3-6.3h15.7c3.5,0,6.3,2.8,6.3,6.3c0,3.5-2.8,6.3-6.3,6.3
	l0,0L348.9,55.4z M348.9,58.5c3.4,0,6.2,2.8,6.2,6.2c0,3.4-2.8,6.2-6.2,6.2c-3.4,0-6.2-2.8-6.2-6.2v-6.3H348.9z M355.1,33.4
	c0,3.5-2.8,6.3-6.3,6.3c-3.5,0-6.3-2.8-6.3-6.3l0,0V17.8c0-3.5,2.8-6.3,6.3-6.3c3.5,0,6.3,2.8,6.3,6.3l0,0V33.4z M358.3,33.4
	c0-3.4,2.8-6.2,6.2-6.2s6.2,2.8,6.2,6.2c0,3.4-2.8,6.2-6.2,6.2h-6.3L358.3,33.4z M333.2,27.2c3.4,0,6.2,2.8,6.2,6.2
	s-2.8,6.2-6.2,6.2h-15.6c-3.4,0-6.2-2.8-6.2-6.2s2.8-6.2,6.2-6.2l0,0H333.2z M333.2,24c-3.4,0-6.2-2.8-6.2-6.2
	c0-3.4,2.8-6.2,6.2-6.2s6.2,2.8,6.2,6.2V24L333.2,24z M326.9,49.1c0-3.4,2.8-6.2,6.2-6.2s6.2,2.8,6.2,6.2v15.7
	c0,3.4-2.8,6.2-6.2,6.2s-6.2-2.8-6.2-6.2l0,0V49.1z M323.8,49.1c0,3.4-2.8,6.2-6.2,6.2c-3.4,0-6.2-2.8-6.2-6.2s2.8-6.2,6.2-6.2h6.2
	V49.1z"/>
<g>
	<g class="st2">
		<path class="st3" d="M397.2,60.1c-1.6-0.3-3.1-0.8-4.5-1.5c-1.4-0.6-2.6-1.4-3.7-2.3l3-5.4c1.3,1.1,2.9,1.9,4.6,2.5
			c1.8,0.6,3.6,0.9,5.4,0.9c2.1,0,3.8-0.4,5-1.1c1.2-0.7,1.8-1.8,1.8-3.1v0c0-0.9-0.3-1.7-0.8-2.2c-0.5-0.5-1.2-0.9-2.1-1.2
			c-0.8-0.3-1.9-0.5-3.3-0.7c0,0-0.1,0-0.1,0c0,0-0.1,0-0.1,0l-0.5-0.1c-2.3-0.4-4.3-0.8-5.8-1.4c-1.5-0.5-2.8-1.5-3.9-2.9
			c-1.1-1.4-1.6-3.3-1.6-5.9v0c0-2.2,0.5-4.2,1.5-5.8c1-1.6,2.5-2.8,4.4-3.6c1.9-0.8,4.2-1.3,6.9-1.3c1.2,0,2.5,0.1,3.8,0.4
			c1.3,0.3,2.6,0.7,3.8,1.2c1.2,0.5,2.4,1.2,3.5,2l-2.8,5.6c-1.3-0.9-2.7-1.6-4.2-2.2c-1.5-0.5-2.9-0.8-4.2-0.8c-2,0-3.6,0.3-4.7,1
			c-1.1,0.7-1.7,1.6-1.7,2.8v0c0,1,0.3,1.8,0.9,2.4c0.6,0.6,1.3,1,2.1,1.3c0.8,0.3,2,0.6,3.6,0.9c0.1,0,0.1,0,0.2,0
			c0.1,0,0.1,0,0.2,0c0.1,0,0.2,0,0.3,0.1c0.1,0,0.2,0,0.3,0.1c2.2,0.4,4,1,5.5,1.6c1.5,0.6,2.7,1.6,3.7,3c1,1.4,1.5,3.2,1.5,5.6v0
			c0,2.2-0.5,4.1-1.6,5.7c-1,1.6-2.5,2.8-4.5,3.6c-2,0.8-4.4,1.2-7.2,1.2C400.4,60.6,398.8,60.4,397.2,60.1z"/>
		<path class="st3" d="M427.4,52c0,0.6,0.2,1.1,0.5,1.4c0.3,0.3,0.8,0.5,1.5,0.5h1.1v6.3h-3.3c-2,0-3.5-0.6-4.6-1.7
			s-1.7-2.8-1.7-4.9V25.4h6.6V52z"/>
		<path class="st3" d="M435.8,58.7c-1.3-1.3-2-3.2-2-5.8c0-2.5,0.7-4.3,2.2-5.5c1.5-1.2,3.7-1.8,6.6-1.8h6.2l0.3,5h-6.5
			c-1,0-1.7,0.2-2.2,0.6c-0.5,0.4-0.7,1-0.7,1.8c0,0.8,0.3,1.4,0.9,1.8c0.6,0.4,1.6,0.6,2.8,0.6c1.8,0,3.1-0.2,3.9-0.6
			c0.9-0.4,1.3-1,1.3-1.9l0.5,3.6c-0.1,0.9-0.5,1.7-1.2,2.3c-0.7,0.6-1.6,1.1-2.7,1.4c-1.1,0.3-2.2,0.5-3.5,0.5
			C439.1,60.6,437.1,59.9,435.8,58.7z M448.7,44.5c0-1.1-0.4-2-1.1-2.7s-1.9-0.9-3.3-0.9c-0.9,0-1.8,0.2-2.8,0.5
			c-0.9,0.3-1.7,0.7-2.4,1.3l-4.1-4c1-1.1,2.3-2,3.9-2.6c1.6-0.6,3.4-0.9,5.4-0.9c2.2,0,4,0.4,5.6,1.1c1.5,0.7,2.7,1.8,3.5,3.2
			c0.8,1.4,1.2,3,1.2,5v16h-6V44.5z"/>
		<path class="st3" d="M465.5,59.2c-1.7-0.9-3-2.2-3.8-3.9c-0.9-1.7-1.3-3.8-1.3-6.2v-2.7c0-2.4,0.4-4.5,1.3-6.2
			c0.9-1.7,2.2-3,3.8-3.9c1.7-0.9,3.7-1.3,6.1-1.3c1.4,0,2.6,0.2,3.8,0.5c1.2,0.3,2.3,0.8,3.2,1.4c1,0.6,1.8,1.3,2.4,2.2l-4.2,4.1
			c-0.6-0.6-1.3-1-2.1-1.3c-0.8-0.3-1.7-0.5-2.6-0.5c-1.7,0-2.9,0.4-3.9,1.3c-0.9,0.9-1.4,2.1-1.4,3.7v2.7c0,1.7,0.5,2.9,1.4,3.8
			c0.9,0.9,2.2,1.4,3.9,1.4c0.9,0,1.8-0.2,2.6-0.5s1.5-0.8,2.1-1.4l4.2,4.4c-0.7,0.8-1.5,1.5-2.4,2.1c-1,0.6-2,1-3.2,1.3
			s-2.5,0.5-3.8,0.5C469.2,60.6,467.2,60.1,465.5,59.2z"/>
		<path class="st3" d="M485.5,25.4h6.6v34.8h-6.6V25.4z M488.6,51.3l11.6-15.9h6.9l-17.6,23.1L488.6,51.3z M494.4,47.4l5.4-3.3
			l8.4,16.1h-7.6L494.4,47.4z"/>
	</g>
</g>
<g>
	<g class="st2">
		<path class="st3" d="M76.3,37.1v6.4c0,2.6-0.5,4.9-1.5,6.8c-1,2-2.5,3.5-4.4,4.6c-1.9,1.1-4,1.6-6.5,1.6c-2.5,0-4.7-0.5-6.6-1.5
			c-1.9-1-3.4-2.4-4.4-4.3c-1-1.9-1.6-4-1.6-6.4V34c0-2.6,0.5-4.9,1.5-6.8c1-2,2.5-3.5,4.4-4.6c1.9-1.1,4-1.6,6.5-1.6
			c2,0,3.9,0.4,5.6,1.3c1.7,0.9,3.2,2.1,4.3,3.6c1.1,1.6,1.9,3.4,2.3,5.4h-6.2c-0.3-1-0.7-1.8-1.3-2.5c-0.6-0.7-1.3-1.2-2.2-1.6
			c-0.8-0.4-1.7-0.5-2.6-0.5c-1.3,0-2.5,0.3-3.4,0.9c-1,0.6-1.7,1.4-2.3,2.5c-0.5,1.1-0.8,2.4-0.8,3.8v10.3c0,1.3,0.3,2.4,0.8,3.4
			c0.6,1,1.3,1.7,2.3,2.3c1,0.5,2.2,0.8,3.5,0.8c1.3,0,2.5-0.3,3.4-0.8c1-0.6,1.8-1.4,2.3-2.5c0.5-1.1,0.8-2.4,0.8-3.8v-1.1h-6.2
			v-5.5H76.3z"/>
		<path class="st3" d="M87.4,55.3c-1.6-0.8-2.8-2.1-3.6-3.7C83,50,82.5,48,82.5,45.7v-4c0-2.2,0.4-4.2,1.2-5.8
			c0.8-1.6,2-2.8,3.6-3.7c1.6-0.8,3.5-1.3,5.7-1.3s4.1,0.4,5.7,1.3c1.6,0.8,2.8,2.1,3.6,3.7c0.8,1.6,1.2,3.5,1.2,5.8v4.1
			c0,2.3-0.4,4.2-1.2,5.8c-0.8,1.6-2,2.8-3.6,3.7c-1.6,0.8-3.5,1.3-5.7,1.3S88.9,56.1,87.4,55.3z M96.5,49.7
			c0.8-0.9,1.2-2.2,1.2-3.9v-4.1c0-1.7-0.4-2.9-1.2-3.9c-0.8-0.9-2-1.4-3.5-1.4c-1.5,0-2.7,0.5-3.5,1.4c-0.8,0.9-1.2,2.2-1.2,3.9
			v4.1c0,1.7,0.4,3,1.2,3.9c0.8,0.9,2,1.4,3.5,1.4C94.5,51.1,95.7,50.6,96.5,49.7z"/>
		<path class="st3" d="M114.1,55.3c-1.6-0.8-2.8-2.1-3.6-3.7c-0.8-1.6-1.2-3.6-1.2-5.9v-4c0-2.2,0.4-4.2,1.2-5.8
			c0.8-1.6,2-2.8,3.6-3.7c1.6-0.8,3.5-1.3,5.7-1.3s4.1,0.4,5.7,1.3c1.6,0.8,2.8,2.1,3.6,3.7c0.8,1.6,1.2,3.5,1.2,5.8v4.1
			c0,2.3-0.4,4.2-1.2,5.8c-0.8,1.6-2,2.8-3.6,3.7c-1.6,0.8-3.5,1.3-5.7,1.3S115.6,56.1,114.1,55.3z M123.2,49.7
			c0.8-0.9,1.2-2.2,1.2-3.9v-4.1c0-1.7-0.4-2.9-1.2-3.9c-0.8-0.9-2-1.4-3.5-1.4c-1.5,0-2.7,0.5-3.5,1.4c-0.8,0.9-1.2,2.2-1.2,3.9
			v4.1c0,1.7,0.4,3,1.2,3.9c0.8,0.9,2,1.4,3.5,1.4C121.2,51.1,122.4,50.6,123.2,49.7z"/>
		<path class="st3" d="M139.8,55.4c-1.3-0.8-2.2-2-2.9-3.6c-0.7-1.6-1-3.4-1-5.6v-4.7c0-2.2,0.3-4.1,1-5.7c0.7-1.6,1.6-2.8,2.9-3.6
			c1.3-0.8,2.8-1.2,4.5-1.2c1.4,0,2.7,0.4,3.8,1.2c1.2,0.8,2.1,1.9,2.8,3.3l-0.5,5.3c0-1-0.2-1.8-0.5-2.4s-0.8-1.2-1.5-1.5
			c-0.6-0.4-1.4-0.5-2.3-0.5c-1.4,0-2.5,0.5-3.3,1.4c-0.8,0.9-1.2,2.2-1.2,3.9v4.7c0,1.6,0.4,2.9,1.2,3.8c0.8,0.9,1.9,1.4,3.3,1.4
			c0.9,0,1.7-0.2,2.3-0.5c0.6-0.4,1.1-0.9,1.5-1.5s0.5-1.5,0.5-2.4l0.3,5.5c-0.5,1.3-1.3,2.3-2.4,3.1c-1.1,0.8-2.4,1.2-4,1.2
			C142.6,56.6,141.1,56.2,139.8,55.4z M140.1,65.3c-1.5-0.7-2.7-1.7-3.5-2.9l3.9-3.5c0.6,0.7,1.3,1.3,2.1,1.7
			c0.8,0.4,1.7,0.6,2.6,0.6c1.6,0,2.9-0.4,3.9-1.3c0.9-0.9,1.4-2.1,1.4-3.7V31.4h5.7v24.1c0,2.3-0.4,4.2-1.3,5.9
			c-0.9,1.6-2.1,2.9-3.7,3.7c-1.6,0.8-3.6,1.3-5.9,1.3C143.3,66.3,141.6,66,140.1,65.3z"/>
		<path class="st3" d="M168.8,48.9c0,0.6,0.2,1.1,0.5,1.4c0.3,0.3,0.7,0.5,1.3,0.5h1.7v5.5h-3.1c-1.9,0-3.4-0.6-4.5-1.7
			c-1.1-1.1-1.6-2.8-1.6-4.9V21.4h5.7V48.9z"/>
		<path class="st3" d="M181.7,55.3c-1.7-0.9-2.9-2.1-3.8-3.8c-0.9-1.7-1.3-3.7-1.3-6v-2.8c0-2.5,0.4-4.6,1.3-6.3
			c0.8-1.7,2.1-3.1,3.7-4c1.6-0.9,3.5-1.4,5.8-1.4c2.1,0,3.9,0.5,5.4,1.6c1.5,1.1,2.7,2.6,3.4,4.6c0.8,2,1.2,4.4,1.2,7.3v1.6h-16.9
			v-4.2H192l0-0.3c-0.2-1.7-0.6-3.1-1.5-4s-1.9-1.4-3.3-1.4c-1.7,0-3.1,0.5-4,1.6c-0.9,1.1-1.4,2.6-1.4,4.6v3.2
			c0,1.9,0.5,3.3,1.5,4.3c1,1,2.5,1.5,4.3,1.5c0.9,0,1.9-0.2,2.8-0.5c0.9-0.4,1.7-0.9,2.5-1.5l3.7,3.5c-1.3,1.2-2.7,2.1-4.2,2.7
			c-1.6,0.6-3.2,1-4.7,1C185.3,56.6,183.3,56.1,181.7,55.3z"/>
	</g>
</g>
<g id="Page-1" class="st2">
	<g id="Dribbble-Light-Preview" transform="translate(-300.000000, -7479.000000)">
		<g id="icons" transform="translate(56.000000, 160.000000)">
			<path id="dropbox-_x5B__x23_158_x5D_" class="st4" d="M879,7367.7l-13.8,11.5l-6-3.9v4.4l19.8,11.9l19.8-11.9v-4.4l-6,3.9
				L879,7367.7z M912,7341.9l-19.4-12.9l-13.6,11.6l19.6,12.3L912,7341.9z M879,7365.2l13.6,11.6l19.4-12.9l-13.4-11L879,7365.2z
				 M846,7363.8l19.4,12.9l13.6-11.6l-19.6-12.3L846,7363.8z M879,7340.5l-19.6,12.3l-13.4-11l19.4-12.9L879,7340.5z"/>
		</g>
	</g>
</g>
<g>
	<g class="st2">
		<path class="st3" d="M690.5,22.4h6.6v34.8h-6.6V22.4z M693.8,50.9h8.4c2.2,0,3.8-0.5,5-1.6c1.2-1,1.8-2.5,1.8-4.4V34.7
			c0-1.9-0.6-3.4-1.8-4.4c-1.2-1-2.8-1.6-5-1.6h-8.4v-6.3h8.2c2.9,0,5.4,0.5,7.4,1.5c2,1,3.6,2.4,4.7,4.3c1.1,1.9,1.6,4.1,1.6,6.7
			v9.9c0,2.5-0.5,4.7-1.5,6.6c-1,1.9-2.6,3.3-4.6,4.4c-2.1,1-4.6,1.6-7.6,1.6h-8.2V50.9z"/>
		<path class="st3" d="M722.2,32.4h7v24.8h-7V32.4z M735,38.6c-0.5-0.2-1-0.2-1.6-0.2c-1.3,0-2.3,0.4-3.1,1.3
			c-0.7,0.9-1.1,2-1.1,3.6l-0.5-6.5c0.7-1.5,1.6-2.6,2.7-3.5c1.1-0.8,2.3-1.2,3.6-1.2c1,0,2,0.2,2.8,0.5c0.8,0.3,1.6,0.8,2.2,1.4
			l-3.8,5.3C735.9,39,735.5,38.7,735,38.6z"/>
		<path class="st3" d="M747.3,56.3c-1.6-0.8-2.8-2.1-3.7-3.7c-0.8-1.6-1.3-3.6-1.3-5.9v-4c0-2.2,0.4-4.2,1.3-5.8
			c0.8-1.6,2.1-2.8,3.7-3.7c1.6-0.8,3.5-1.3,5.8-1.3s4.2,0.4,5.8,1.3c1.6,0.8,2.8,2.1,3.7,3.7c0.8,1.6,1.3,3.5,1.3,5.8v4.1
			c0,2.3-0.4,4.2-1.3,5.8c-0.8,1.6-2.1,2.8-3.7,3.7c-1.6,0.8-3.5,1.3-5.8,1.3S748.9,57.1,747.3,56.3z M756.2,50.1
			c0.7-0.8,1.1-1.9,1.1-3.3v-4.1c0-1.4-0.4-2.5-1.1-3.2s-1.8-1.1-3.1-1.1c-1.3,0-2.3,0.4-3.1,1.1s-1.1,1.8-1.1,3.2v4.1
			c0,1.4,0.4,2.5,1.1,3.3c0.7,0.8,1.7,1.2,3.1,1.2C754.4,51.2,755.5,50.9,756.2,50.1z"/>
		<path class="st3" d="M769.8,32.4h6.6v34.9h-6.6V32.4z M778.4,56.4c-1.1-0.7-1.8-1.8-2.3-3.1l0.3-5.7c0,0.8,0.1,1.5,0.4,2.1
			s0.7,1,1.3,1.3c0.6,0.3,1.2,0.5,2,0.5c1.2,0,2.2-0.4,2.9-1.2s1-2,1-3.4v-3.9c0-1.5-0.3-2.7-1-3.5c-0.7-0.8-1.6-1.3-2.9-1.3
			c-0.8,0-1.4,0.2-2,0.5c-0.5,0.3-1,0.8-1.3,1.4c-0.3,0.6-0.4,1.3-0.4,2.2l-0.5-5.5c0.7-1.5,1.6-2.6,2.6-3.4
			c1.1-0.8,2.3-1.2,3.6-1.2c1.8,0,3.3,0.4,4.5,1.3c1.3,0.8,2.2,2.1,2.9,3.7c0.7,1.6,1,3.6,1,5.9v4c0,2.3-0.3,4.2-1,5.8
			c-0.7,1.6-1.6,2.8-2.9,3.7c-1.3,0.8-2.8,1.3-4.5,1.3C780.7,57.6,779.5,57.2,778.4,56.4z"/>
		<path class="st3" d="M796.5,22.4h6.6v34.8h-6.6V22.4z M805.1,56.4c-1.1-0.7-1.8-1.8-2.3-3.1l0.3-5.7c0,0.8,0.1,1.5,0.4,2.1
			s0.7,1,1.3,1.3c0.6,0.3,1.2,0.5,2,0.5c1.2,0,2.2-0.4,2.9-1.2s1-2,1-3.4v-3.9c0-1.5-0.3-2.7-1-3.5c-0.7-0.8-1.6-1.3-2.9-1.3
			c-0.8,0-1.4,0.2-2,0.5c-0.5,0.3-1,0.8-1.3,1.4c-0.3,0.6-0.4,1.3-0.4,2.2l-0.5-5.5c0.7-1.5,1.6-2.6,2.6-3.4
			c1.1-0.8,2.3-1.2,3.6-1.2c1.8,0,3.3,0.4,4.5,1.3c1.3,0.8,2.2,2.1,2.9,3.7c0.7,1.6,1,3.6,1,5.9v4c0,2.3-0.3,4.2-1,5.8
			c-0.7,1.6-1.6,2.8-2.9,3.7c-1.3,0.8-2.8,1.3-4.5,1.3C807.4,57.6,806.1,57.2,805.1,56.4z"/>
		<path class="st3" d="M827.3,56.3c-1.6-0.8-2.8-2.1-3.7-3.7c-0.8-1.6-1.3-3.6-1.3-5.9v-4c0-2.2,0.4-4.2,1.3-5.8
			c0.8-1.6,2.1-2.8,3.7-3.7c1.6-0.8,3.5-1.3,5.8-1.3s4.2,0.4,5.8,1.3c1.6,0.8,2.8,2.1,3.7,3.7c0.8,1.6,1.3,3.5,1.3,5.8v4.1
			c0,2.3-0.4,4.2-1.3,5.8c-0.8,1.6-2.1,2.8-3.7,3.7c-1.6,0.8-3.5,1.3-5.8,1.3S828.9,57.1,827.3,56.3z M836.2,50.1
			c0.7-0.8,1.1-1.9,1.1-3.3v-4.1c0-1.4-0.4-2.5-1.1-3.2s-1.8-1.1-3.1-1.1c-1.3,0-2.3,0.4-3.1,1.1s-1.1,1.8-1.1,3.2v4.1
			c0,1.4,0.4,2.5,1.1,3.3c0.7,0.8,1.7,1.2,3.1,1.2C834.4,51.2,835.5,50.9,836.2,50.1z"/>
		<path class="st3" d="M856.2,43.5l3.9,4.5l-5.7,9.2h-7L856.2,43.5z M857.4,46.9l-9.6-14.6h7.2l6,10l9.7,14.8h-7.2L857.4,46.9z
			 M858.5,41.2l4.6-8.8h7.2l-8,13.4L858.5,41.2z"/>
	</g>
</g>
<g id="c2be471c56fc5b4dd571614bb3052f50" class="st2">
	<path class="st3" d="M1019.6,22.5c0,0,0-0.3-0.2-0.4c-0.2-0.1-0.3-0.1-0.3-0.1l-4.7-0.4l-3.5-3.5c-0.1-0.1-0.3-0.2-0.4-0.2
		c-0.4-0.1-0.9,0-1,0l-1.8,0.6c-0.8-2.3-1.9-4-3.2-4.9c-1-0.7-2.1-1-3.3-0.9c-0.2-0.3-0.5-0.6-0.8-0.9c-1.3-1.1-3-1.2-5-0.5
		c-6,2.2-8.6,10-9.5,13.9l-5.2,1.6c0,0-1.2,0.4-1.5,0.7c-0.3,0.4-0.4,1.4-0.4,1.4l-4.5,34.3l33.5,6.3l18.1-3.9L1019.6,22.5z
		 M1001,20.7l-5.8,1.8c0.8-3,2.2-6.1,5.1-7.3C1000.9,16.8,1001,18.9,1001,20.7z M996.1,13.4c1.2-0.4,2.2-0.4,2.9,0.1
		c-3.8,1.7-5.4,6.1-6.1,9.8l-4.6,1.4C989.3,20.9,991.6,15,996.1,13.4z M999.4,38.7c-0.3-0.1-0.6-0.3-0.9-0.4
		c-0.4-0.1-0.7-0.3-1.2-0.4c-0.4-0.1-0.9-0.2-1.3-0.2c-0.5-0.1-1-0.1-1.5,0c-0.5,0-0.9,0.1-1.3,0.2c-0.4,0.1-0.7,0.3-1,0.5
		c-0.3,0.2-0.5,0.5-0.6,0.8c-0.1,0.3-0.2,0.7-0.2,1c0,0.3,0,0.6,0.1,0.8c0.1,0.3,0.3,0.5,0.5,0.8c0.2,0.3,0.5,0.5,0.8,0.8
		c0.3,0.3,0.7,0.5,1.2,0.8c0.6,0.4,1.3,0.9,1.9,1.4c0.6,0.5,1.2,1.1,1.7,1.8c0.5,0.7,0.9,1.5,1.2,2.4c0.3,0.9,0.4,1.9,0.4,2.9
		c-0.1,1.8-0.5,3.3-1.1,4.5c-0.6,1.2-1.5,2.2-2.5,2.9c-1,0.7-2.2,1.1-3.5,1.3c-1.3,0.2-2.6,0.1-4-0.2c0,0,0,0,0,0c0,0,0,0,0,0
		c0,0,0,0,0,0c0,0,0,0,0,0c-0.6-0.2-1.3-0.4-1.9-0.6c-0.6-0.2-1.1-0.5-1.6-0.8c-0.5-0.3-0.9-0.6-1.3-0.9c-0.4-0.3-0.7-0.6-1-1
		l1.5-5.1c0.3,0.2,0.6,0.5,0.9,0.7c0.4,0.3,0.8,0.5,1.2,0.8c0.4,0.2,0.9,0.5,1.4,0.7c0.5,0.2,1,0.3,1.5,0.4c0.4,0.1,0.8,0.1,1.2,0
		c0.3-0.1,0.6-0.2,0.9-0.4c0.2-0.2,0.4-0.4,0.6-0.7c0.1-0.3,0.2-0.6,0.2-1c0-0.3,0-0.7-0.1-1c-0.1-0.3-0.2-0.6-0.4-0.9
		c-0.2-0.3-0.5-0.6-0.8-0.9c-0.3-0.3-0.7-0.6-1.2-1c-0.6-0.4-1.1-0.9-1.6-1.4c-0.5-0.5-0.9-1.1-1.3-1.6c-0.3-0.6-0.6-1.2-0.8-1.9
		c-0.2-0.7-0.3-1.4-0.2-2.2c0.1-1.4,0.3-2.6,0.8-3.7c0.5-1.1,1.1-2.2,1.9-3c0.8-0.9,1.8-1.7,3-2.2c1.2-0.6,2.6-1,4.1-1.2
		c0.7-0.1,1.4-0.1,2-0.1c0.7,0,1.3,0,1.8,0.1c0.6,0.1,1.1,0.2,1.5,0.3c0.5,0.1,0.9,0.3,1.2,0.5L999.4,38.7z M1003,20.1
		c0-0.2,0-0.5,0-0.7c-0.1-1.8-0.3-3.3-0.7-4.6c0.5,0,0.9,0.2,1.2,0.5c1,0.7,1.8,2.2,2.3,3.9L1003,20.1z"/>
</g>
<g>
	<g class="st2">
		<path class="st3" d="M1054.7,59.4c-1.4-0.3-2.6-0.7-3.8-1.3s-2.3-1.2-3.2-2l2.6-4.6c1.1,0.9,2.5,1.7,4,2.2s3,0.8,4.6,0.8
			c1.8,0,3.3-0.3,4.3-0.9s1.5-1.5,1.5-2.6v0c0-0.8-0.2-1.4-0.7-1.9s-1-0.8-1.8-1s-1.7-0.4-2.8-0.6c0,0-0.1,0-0.1,0s-0.1,0-0.1,0
			l-0.5-0.1c-2-0.3-3.7-0.7-5-1.2s-2.4-1.3-3.3-2.5s-1.4-2.9-1.4-5v0c0-1.9,0.4-3.6,1.3-4.9s2.1-2.4,3.8-3.1s3.6-1.1,5.9-1.1
			c1.1,0,2.2,0.1,3.3,0.4s2.2,0.6,3.3,1.1s2.1,1,3,1.7l-2.4,4.8c-1.1-0.8-2.3-1.4-3.6-1.8s-2.5-0.7-3.6-0.7c-1.7,0-3.1,0.3-4,0.9
			s-1.4,1.4-1.4,2.4v0c0,0.9,0.2,1.5,0.7,2s1.1,0.9,1.8,1.1s1.7,0.5,3.1,0.7c0.1,0,0.1,0,0.2,0s0.1,0,0.2,0c0.1,0,0.2,0,0.2,0.1
			s0.2,0,0.2,0.1c1.9,0.4,3.5,0.8,4.7,1.3s2.3,1.4,3.2,2.5s1.3,2.8,1.3,4.8v0c0,1.9-0.4,3.5-1.3,4.9s-2.2,2.4-3.9,3.1
			s-3.8,1.1-6.1,1.1C1057.4,59.8,1056,59.7,1054.7,59.4z"/>
		<path class="st3" d="M1074.9,29.7h5.6v29.8h-5.6V29.7z M1087.2,46.6c0-1-0.3-1.8-0.9-2.4s-1.4-0.9-2.5-0.9c-1,0-1.8,0.3-2.4,0.9
			s-0.9,1.4-0.9,2.5l-0.4-4.7c0.6-1.3,1.4-2.3,2.3-3s2-1,3.4-1c2.2,0,4,0.8,5.2,2.3s1.8,3.6,1.8,6.4v12.9h-5.6V46.6z"/>
		<path class="st3" d="M1102,58.7c-1.4-0.7-2.4-1.8-3.1-3.2s-1.1-3.1-1.1-5v-3.5c0-1.9,0.4-3.6,1.1-5s1.8-2.4,3.1-3.1s3-1.1,5-1.1
			s3.6,0.4,5,1.1s2.4,1.8,3.1,3.1s1.1,3,1.1,5v3.5c0,1.9-0.4,3.6-1.1,5s-1.8,2.4-3.1,3.1s-3,1.1-5,1.1S1103.3,59.4,1102,58.7z
			 M1109.6,53.4c0.6-0.7,0.9-1.6,0.9-2.8v-3.5c0-1.2-0.3-2.1-0.9-2.8s-1.5-1-2.6-1c-1.1,0-2,0.3-2.6,1s-0.9,1.6-0.9,2.8v3.5
			c0,1.2,0.3,2.1,0.9,2.8s1.5,1,2.6,1S1108.9,54.1,1109.6,53.4z"/>
		<path class="st3" d="M1121.3,38.2h5.6v29.9h-5.6V38.2z M1128.6,58.8c-0.9-0.6-1.6-1.5-2-2.7l0.3-4.9c0,0.7,0.1,1.3,0.4,1.8
			s0.6,0.9,1.1,1.1s1,0.4,1.7,0.4c1.1,0,1.9-0.3,2.5-1s0.9-1.7,0.9-3v-3.4c0-1.3-0.3-2.3-0.9-3s-1.4-1.1-2.5-1.1
			c-0.7,0-1.2,0.1-1.7,0.4s-0.8,0.7-1.1,1.2s-0.4,1.1-0.4,1.8l-0.4-4.7c0.6-1.2,1.3-2.2,2.3-2.9s2-1,3.1-1c1.5,0,2.8,0.4,3.9,1.1
			s1.9,1.8,2.5,3.2s0.8,3.1,0.8,5v3.4c0,1.9-0.3,3.6-0.8,5s-1.4,2.4-2.5,3.1s-2.4,1.1-3.9,1.1C1130.6,59.8,1129.5,59.5,1128.6,58.8z
			"/>
		<path class="st3" d="M1143.8,29.7h5.6v5.6h-5.6V29.7z M1143.8,38.2h5.6v21.3h-5.6V38.2z"/>
		<path class="st3" d="M1153,38.2h11.5V43H1153V38.2z M1155.3,35.3c0-1.9,0.4-3.3,1.3-4.2s2.2-1.4,4-1.4h3.9v5h-2.4
			c-0.4,0-0.7,0.2-0.9,0.5s-0.3,0.7-0.3,1.2v23.2h-5.6V35.3z"/>
		<path class="st3" d="M1165.7,38.2h5.3l7.2,18.5l-3.5,4.5L1165.7,38.2z M1185.4,38.2l-9.5,26.3c-0.4,1-0.8,1.7-1.3,2.3
			s-1.2,1-1.9,1.2s-1.7,0.4-2.9,0.4h-1.3v-5.5h1.3c0.6,0,1.1-0.1,1.5-0.4s0.7-0.7,0.9-1.3l7.9-23H1185.4z"/>
	</g>
</g>
</svg>
